# xmcd
#
# Track frame offsets: 
#        150
#        19622
#        35535
#        60800
#        75432
#        95435
#        124835
#        149095
#        169280
#        187950
#        209040
#        225187
#
# Disc length: 3279 seconds
#
# Revision: 8
# Processed by: cddbd v1.5.2PL0 Copyright (c) Steve Scherf et al.
# Submitted via: ExactAudioCopy v1.0b4
#
DISCID=980ccd0c
DTITLE=Doug MacLeod - Unmarked Road
DYEAR=1997
DGENRE=Blues
TTITLE0=Unmarked Road
TTITLE1=Necessary Clothes
TTITLE2=Little Songbird
TTITLE3=Home Cookin'
TTITLE4=Talking With Strangers
TTITLE5=Roll Like A River
TTITLE6=Lost Like The Wind At Night
TTITLE7=I Want You
TTITLE8=Children Like You
TTITLE9=Night Run To Freedom
TTITLE10=Cross-eyed In The Mind
TTITLE11=Old Country Road
EXTD=
EXTT0=
EXTT1=
EXTT2=
EXTT3=
EXTT4=
EXTT5=
EXTT6=
EXTT7=
EXTT8=
EXTT9=
EXTT10=
EXTT11=
PLAYORDER=
